<?xml version="1.0" encoding="UTF-8" standalone="no"?>
<!DOCTYPE svg PUBLIC "-//W3C//DTD SVG 1.1//EN" "http://www.w3.org/Graphics/SVG/1.1/DTD/svg11.dtd">
<svg width="100%" height="100%" viewBox="0 0 6000 1000" version="1.1" xmlns="http://www.w3.org/2000/svg" xmlns:xlink="http://www.w3.org/1999/xlink" xml:space="preserve" xmlns:serif="http://www.serif.com/" style="fill-rule:evenodd;clip-rule:evenodd;stroke-linejoin:round;stroke-miterlimit:1.41421;">
    <rect x="0" y="0" width="1000" height="1000" style="fill:rgb(195,20,50);"/>
    <g transform="matrix(19.213,0,0,14.8771,-5206.49,-6146.36)">
        <path d="M299.46,466.951L290.53,466.951L289.773,462.166L282.913,462.166L282.083,466.951L273.593,466.951L282.65,429.256L291.476,429.256L299.46,466.951ZM288.577,454.085L287.918,449.69C287.902,449.674 287.869,449.454 287.82,449.031C287.788,448.673 287.617,447.257 287.308,444.783C287.275,444.506 287.234,444.128 287.186,443.648C287.137,443.168 287.072,442.561 286.99,441.829L286.673,438.264C286.64,438.606 286.596,438.989 286.539,439.412C286.482,439.835 286.421,440.299 286.355,440.804C286.242,441.813 286.16,442.513 286.111,442.903C286.063,443.294 286.03,443.53 286.014,443.611L285.306,448.177L284.28,454.085L288.577,454.085Z" style="fill:white;fill-rule:nonzero;"/>
    </g>
    <g transform="matrix(0.999854,0,0,1.02822,8.07137,-16.3086)">
        <path d="M504.094,542.209C504.051,536.365 504.03,530.317 504.03,524.063C504.03,461.206 506.129,419.136 510.326,397.853C514.804,376.571 521.661,359.372 530.896,346.256C545.729,321.261 569.517,298.989 602.26,279.439C634.444,259.641 674.604,249.495 722.74,249C771.435,249.495 812.015,259.641 844.478,279.439C876.662,298.989 899.89,321.261 914.163,346.256C924.518,359.372 931.654,376.571 935.572,397.853C939.211,419.136 941.03,461.206 941.03,524.063C941.03,585.931 939.211,627.754 935.572,649.531C931.654,671.308 924.518,688.755 914.163,701.871C899.89,726.865 876.662,748.89 844.478,767.946C812.015,787.743 771.435,798.137 722.74,799.127C674.604,798.137 634.444,787.743 602.26,767.946C585.299,758.075 570.741,747.408 558.587,735.944L504.094,542.209Z" style="fill:white;fill-rule:nonzero;"/>
    </g>
    <g transform="matrix(0.878659,0,0,0.924756,86.1028,57.6984)">
        <path d="M659.282,502.473C658.993,493.715 658.848,483.281 658.848,471.171C658.848,442.363 659.641,423.082 661.226,413.328C662.916,403.574 665.505,395.692 668.992,389.681C674.593,378.225 683.574,368.018 695.938,359.058C708.089,349.985 723.253,345.334 741.427,345.108C759.814,345.334 775.135,349.985 787.393,359.058C799.545,368.018 808.315,378.225 813.704,389.681C817.614,395.692 820.308,403.574 821.788,413.328C823.161,423.082 823.848,442.363 823.848,471.171C823.848,483.281 823.723,493.715 823.472,502.474C823.723,511.302 823.848,521.867 823.848,534.171C823.848,562.525 823.161,581.693 821.788,591.674C820.308,601.654 817.614,609.65 813.704,615.661C808.315,627.117 799.545,637.211 787.393,645.944C775.135,655.017 759.814,659.781 741.427,660.234C723.253,659.781 708.089,655.017 695.938,645.944C683.574,637.211 674.593,627.117 668.992,615.661C667.302,611.919 665.769,608.346 664.396,604.943C663.128,601.427 662.071,597.004 661.226,591.674C659.641,581.693 658.848,562.525 658.848,534.171C658.848,521.867 658.993,511.302 659.282,502.473Z" style="fill:rgb(195,20,50);fill-rule:nonzero;"/>
    </g>
    <g transform="matrix(1.1309,0,0,1.16299,118.18,-61.7251)">
        <circle cx="468.5" cy="182.5" r="51.5" style="fill:white;"/>
    </g>
    <g transform="matrix(1.1309,0,0,1.16299,283.155,-61.7251)">
        <circle cx="468.5" cy="182.5" r="51.5" style="fill:white;"/>
    </g>
    <g transform="matrix(13.0983,0,0,13.0983,-805.951,-11104.5)">
        <path d="M154.572,869.445L158.527,869.445L166.608,907.141L161.579,907.141L160.163,899.792L152.692,899.792L151.252,907.141L146.369,907.141L154.572,869.445ZM159.431,895.861L158.308,889.855C157.559,885.77 156.949,881.408 156.477,876.769C156.249,879.032 155.956,881.323 155.598,883.642C155.24,885.961 154.816,888.423 154.328,891.027L153.4,895.861L159.431,895.861Z" style="fill:white;fill-rule:nonzero;"/>
        <path d="M167.587,869.445L174.276,869.445C177.043,869.445 179.102,870.104 180.453,871.423C182.162,873.132 183.017,875.744 183.017,879.26C183.017,881.962 182.565,884.13 181.662,885.766C180.758,887.402 179.468,888.415 177.792,888.806L184.726,907.141L179.574,907.141L172.665,888.684L172.665,907.141L167.587,907.141L167.587,869.445ZM172.665,886.144C174.634,886.144 176.026,885.689 176.84,884.777C177.654,883.866 178.06,882.328 178.06,880.163C178.06,878.991 177.975,877.99 177.804,877.16C177.633,876.33 177.365,875.655 176.998,875.134C176.632,874.613 176.16,874.23 175.582,873.986C175.005,873.742 174.317,873.62 173.519,873.62L172.665,873.62L172.665,886.144Z" style="fill:white;fill-rule:nonzero;"/>
        <path d="M184.142,869.445L200.67,869.445L200.67,873.889L194.981,873.889L194.981,907.141L190.001,907.141L190.001,873.889L184.142,873.889L184.142,869.445Z" style="fill:white;fill-rule:nonzero;"/>
        <rect x="201.477" y="869.445" width="5.078" height="37.695" style="fill:white;fill-rule:nonzero;"/>
        <path d="M210.366,869.445L223.94,869.445L223.94,873.742L215.444,873.742L215.444,885.656L223.11,885.656L223.11,889.953L215.444,889.953L215.444,907.141L210.366,907.141L210.366,869.445Z" style="fill:white;fill-rule:nonzero;"/>
        <rect x="225.847" y="869.445" width="5.078" height="37.695" style="fill:white;fill-rule:nonzero;"/>
        <path d="M249.53,870.056L249.53,874.621C248.228,873.986 247.138,873.669 246.259,873.669C245.054,873.669 244.021,873.966 243.158,874.56C242.296,875.154 241.583,876.07 241.022,877.307C240.46,878.544 240.045,880.11 239.777,882.006C239.508,883.902 239.374,886.144 239.374,888.732C239.374,898.042 241.758,902.697 246.527,902.697C247.357,902.697 248.358,902.437 249.53,901.916L249.53,906.579C248.31,907.263 246.942,907.604 245.429,907.604C237.795,907.604 233.978,901.371 233.978,888.903C233.978,882.165 234.91,877.152 236.774,873.864C238.637,870.576 241.49,868.933 245.331,868.933C246.747,868.933 248.147,869.307 249.53,870.056Z" style="fill:white;fill-rule:nonzero;"/>
        <rect x="251.803" y="869.445" width="5.078" height="37.695" style="fill:white;fill-rule:nonzero;"/>
        <path d="M260.691,869.445L274.192,869.445L274.192,873.742L265.769,873.742L265.769,885.681L273.24,885.681L273.24,889.977L265.769,889.977L265.769,902.844L274.192,902.844L274.192,907.141L260.691,907.141L260.691,869.445Z" style="fill:white;fill-rule:nonzero;"/>
        <path d="M276.855,869.445L281.934,869.445L281.934,902.844L290.234,902.844L290.234,907.141L276.855,907.141L276.855,869.445Z" style="fill:white;fill-rule:nonzero;"/>
        <path d="M291.408,869.445L296.486,869.445L296.486,902.844L304.787,902.844L304.787,907.141L291.408,907.141L291.408,869.445Z" style="fill:white;fill-rule:nonzero;"/>
        <path d="M302.103,869.445L318.632,869.445L318.632,873.889L312.943,873.889L312.943,907.141L307.963,907.141L307.963,873.889L302.103,873.889L302.103,869.445Z" style="fill:white;fill-rule:nonzero;"/>
        <path d="M346.663,889.221C346.663,895.878 345.922,900.606 344.441,903.405C342.96,906.205 340.478,907.604 336.995,907.604C333.333,907.604 330.753,906.099 329.256,903.088C327.775,900.142 327.034,894.909 327.034,887.39C327.034,880.684 327.767,875.939 329.231,873.156C330.713,870.357 333.219,868.957 336.751,868.957C339.908,868.957 342.252,870.039 343.782,872.204C344.791,873.653 345.524,875.712 345.979,878.381C346.435,880.855 346.663,884.468 346.663,889.221ZM341.341,889.758C341.341,883.231 341.048,878.902 340.462,876.769C339.876,874.621 338.68,873.547 336.873,873.547C335.066,873.547 333.862,874.532 333.26,876.501C332.674,878.487 332.381,882.474 332.381,888.464C332.381,893.981 332.69,897.806 333.309,899.938C333.943,901.957 335.131,902.966 336.873,902.966C338.582,902.966 339.754,902.022 340.389,900.134C341.023,898.262 341.341,894.803 341.341,889.758ZM332.259,860.07C333.007,860.07 333.65,860.347 334.187,860.9C334.725,861.437 334.993,862.088 334.993,862.853C334.993,863.618 334.716,864.278 334.163,864.831C333.626,865.368 332.975,865.637 332.21,865.637C331.445,865.637 330.786,865.368 330.232,864.831C329.695,864.278 329.427,863.61 329.427,862.829C329.427,862.064 329.703,861.413 330.257,860.876C330.81,860.339 331.477,860.07 332.259,860.07ZM341.609,860.07C342.358,860.07 343.001,860.347 343.538,860.9C344.075,861.437 344.344,862.088 344.344,862.853C344.344,863.618 344.067,864.278 343.514,864.831C342.977,865.368 342.325,865.637 341.56,865.637C340.796,865.637 340.136,865.368 339.583,864.831C339.046,864.278 338.777,863.61 338.777,862.829C338.777,862.064 339.054,861.413 339.607,860.876C340.161,860.339 340.828,860.07 341.609,860.07Z" style="fill:white;fill-rule:nonzero;"/>
        <path d="M362.266,870.227L362.266,875.183C360.719,874.076 359.328,873.522 358.091,873.522C356.756,873.522 355.666,873.994 354.819,874.938C353.973,875.834 353.55,877.03 353.55,878.527C353.55,879.846 353.851,880.977 354.453,881.921C354.762,882.425 355.271,883.076 355.979,883.874C356.687,884.671 357.602,885.632 358.726,886.755C360.793,888.854 362.2,890.669 362.949,892.199C363.698,893.68 364.072,895.495 364.072,897.643C364.072,900.557 363.25,902.958 361.606,904.846C359.963,906.685 357.855,907.604 355.283,907.604C353.118,907.604 351.271,907.01 349.741,905.822L349.741,900.793C351.548,902.111 353.192,902.77 354.673,902.77C356.056,902.77 357.139,902.311 357.92,901.391C358.701,900.471 359.092,899.222 359.092,897.643C359.092,896.276 358.791,895.047 358.188,893.957C357.879,893.436 357.448,892.838 356.894,892.163C356.341,891.487 355.649,890.734 354.819,889.904C353.533,888.635 352.467,887.512 351.621,886.535C350.775,885.559 350.148,884.704 349.741,883.972C348.96,882.539 348.569,880.733 348.569,878.552C348.569,875.606 349.334,873.27 350.864,871.545C352.41,869.803 354.486,868.933 357.09,868.933C358.896,868.933 360.622,869.364 362.266,870.227Z" style="fill:white;fill-rule:nonzero;"/>
        <path d="M363.952,869.445L380.48,869.445L380.48,873.889L374.792,873.889L374.792,907.141L369.811,907.141L369.811,873.889L363.952,873.889L363.952,869.445Z" style="fill:white;fill-rule:nonzero;"/>
        <path d="M381.288,869.445L394.789,869.445L394.789,873.742L386.366,873.742L386.366,885.681L393.837,885.681L393.837,889.977L386.366,889.977L386.366,902.844L394.789,902.844L394.789,907.141L381.288,907.141L381.288,869.445Z" style="fill:white;fill-rule:nonzero;"/>
        <path d="M397.452,869.445L404.142,869.445C406.908,869.445 408.967,870.104 410.318,871.423C412.027,873.132 412.882,875.744 412.882,879.26C412.882,881.962 412.43,884.13 411.527,885.766C410.623,887.402 409.334,888.415 407.657,888.806L414.591,907.141L409.439,907.141L402.53,888.684L402.53,907.141L397.452,907.141L397.452,869.445ZM402.53,886.144C404.5,886.144 405.891,885.689 406.705,884.777C407.519,883.866 407.926,882.328 407.926,880.163C407.926,878.991 407.84,877.99 407.669,877.16C407.498,876.33 407.23,875.655 406.864,875.134C406.498,874.613 406.026,874.23 405.448,873.986C404.87,873.742 404.182,873.62 403.385,873.62L402.53,873.62L402.53,886.144Z" style="fill:white;fill-rule:nonzero;"/>
        <path d="M416.521,869.445L423.406,869.445C428.794,869.445 431.487,872.79 431.487,879.479C431.487,882.035 431.137,883.931 430.437,885.168C429.738,886.405 428.501,887.341 426.727,887.976C428.761,888.789 430.153,889.831 430.901,891.101C431.666,892.354 432.049,894.242 432.049,896.765C432.049,903.682 429.087,907.141 423.162,907.141L416.521,907.141L416.521,869.445ZM421.307,886.047C423.276,886.047 424.643,885.591 425.408,884.68C426.173,883.719 426.556,882.035 426.556,879.626C426.556,875.557 425.091,873.522 422.161,873.522L421.77,873.522L421.551,873.522C421.421,873.522 421.339,873.531 421.307,873.547L421.307,886.047ZM421.307,902.795C423.39,902.795 424.83,902.347 425.628,901.452C426.425,900.557 426.824,898.937 426.824,896.594C426.824,894.185 426.409,892.5 425.579,891.54C424.765,890.563 423.341,890.075 421.307,890.075L421.307,902.795Z" style="fill:white;fill-rule:nonzero;"/>
        <path d="M453.828,889.221C453.828,895.878 453.088,900.606 451.606,903.405C450.125,906.205 447.643,907.604 444.16,907.604C440.498,907.604 437.918,906.099 436.421,903.088C434.94,900.142 434.199,894.909 434.199,887.39C434.199,880.684 434.932,875.939 436.396,873.156C437.878,870.357 440.384,868.957 443.916,868.957C447.074,868.957 449.417,870.039 450.947,872.204C451.956,873.653 452.689,875.712 453.144,878.381C453.6,880.855 453.828,884.468 453.828,889.221ZM448.506,889.758C448.506,883.231 448.213,878.902 447.627,876.769C447.041,874.621 445.845,873.547 444.038,873.547C442.231,873.547 441.027,874.532 440.425,876.501C439.839,878.487 439.546,882.474 439.546,888.464C439.546,893.981 439.855,897.806 440.474,899.938C441.108,901.957 442.296,902.966 444.038,902.966C445.747,902.966 446.919,902.022 447.554,900.134C448.188,898.262 448.506,894.803 448.506,889.758Z" style="fill:white;fill-rule:nonzero;"/>
        <path d="M454.196,869.445L470.725,869.445L470.725,873.889L465.036,873.889L465.036,907.141L460.056,907.141L460.056,873.889L454.196,873.889L454.196,869.445Z" style="fill:white;fill-rule:nonzero;"/>
        <path d="M468.529,869.445L485.058,869.445L485.058,873.889L479.369,873.889L479.369,907.141L474.389,907.141L474.389,873.889L468.529,873.889L468.529,869.445Z" style="fill:white;fill-rule:nonzero;"/>
        <path d="M485.865,869.445L499.366,869.445L499.366,873.742L490.943,873.742L490.943,885.681L498.414,885.681L498.414,889.977L490.943,889.977L490.943,902.844L499.366,902.844L499.366,907.141L485.865,907.141L485.865,869.445Z" style="fill:white;fill-rule:nonzero;"/>
        <path d="M502.029,869.445L506.766,869.445L511.819,884.484C513.284,888.732 514.578,893.265 515.701,898.083C515.294,895.17 514.993,892.533 514.798,890.173C514.602,887.813 514.505,885.591 514.505,883.508L514.505,869.445L519.607,869.445L519.607,907.141L514.847,907.141L509.158,890.173C508.637,888.594 508.145,886.975 507.681,885.314C507.217,883.654 506.79,881.913 506.399,880.09C506.367,879.862 506.314,879.585 506.241,879.26C506.167,878.934 506.082,878.56 505.984,878.137C506.033,878.56 506.074,878.922 506.106,879.223C506.139,879.524 506.163,879.781 506.18,879.992L506.448,883.825L506.717,888.488C506.733,888.749 506.745,889.066 506.753,889.44C506.762,889.815 506.766,890.238 506.766,890.71L507.034,907.141L502.029,907.141L502.029,869.445Z" style="fill:white;fill-rule:nonzero;"/>
    </g>
</svg>
